<svg xmlns="http://www.w3.org/2000/svg" viewBox="0 0 24 24" fill="none" stroke="#07C160" stroke-width="2" stroke-linecap="round" stroke-linejoin="round"><path d="M9.5 4C5.36 4 2 6.69 2 10c0 1.89 1.08 3.57 2.78 4.67L4 17l2.5-1.5c.89.31 1.87.5 2.91.5.4 0 .79-.03 1.17-.08-.26-.61-.41-1.28-.41-1.99 0-2.99 2.97-5.41 6.63-5.41.46 0 .91.04 1.34.11C17.2 5.55 13.66 4 9.5 4z"/><path d="M22 13.5c0-2.76-2.69-5-6-5s-6 2.24-6 5 2.69 5 6 5c.87 0 1.69-.13 2.43-.36L20 19l-.5-2.5c1.05-.88 1.75-2.14 1.75-3.5z"/></svg>
